# xmcd
#
# Track frame offsets:
# 150
# 18389
# 43535
# 64228
# 87860
# 120321
# 157259
# 179871
# 205768
# 231228
# 266751
# 286839
#
# Disc length: 4241 seconds
#
#
# Revision: 0
# Processed by: cddbd v1.5.2PL0 Copyright (c) Steve Scherf et al.
# Submitted via: FreeRIP 2.96 
#
DISCID=ab108f0c
DTITLE=Iny Lorentz - Die Rose von Asturien CD4v6
DYEAR=2009
DGENRE=Speech
TTITLE0=33 Die Rose von Asturien
TTITLE1=34 Die Rose von Asturien
TTITLE2=35 Die Rose von Asturien
TTITLE3=36 Die Rose von Asturien
TTITLE4=37 Die Rose von Asturien
TTITLE5=38 Die Rose von Asturien
TTITLE6=39 Die Rose von Asturien
TTITLE7=40 Die Rose von Asturien
TTITLE8=41 Die Rose von Asturien
TTITLE9=42 Die Rose von Asturien
TTITLE10=43 Die Rose von Asturien
TTITLE11=44 Die Rose von Asturien
EXTD=gelesen von Dana Geissler
EXTT0=
EXTT1=
EXTT2=
EXTT3=
EXTT4=
EXTT5=
EXTT6=
EXTT7=
EXTT8=
EXTT9=
EXTT10=
EXTT11=
PLAYORDER=
